<?xml version="1.0" encoding="utf-8"?><svg viewBox="0 0 241 110" xmlns="http://www.w3.org/2000/svg" xmlns:xlink="http://www.w3.org/1999/xlink"><style>:root>svg{display:none}:root>svg:target{display:block}</style><svg fill="none" viewBox="0 0 23 23" id="arrow" xmlns="http://www.w3.org/2000/svg"><path d="M1.807 15.178c-.585.221-.884.879-.606 1.439a11.5 11.5 0 10.746-11.52c-.348.52-.136 1.21.415 1.506.551.295 1.232.083 1.593-.428a9.235 9.235 0 11-.624 9.633c-.292-.554-.94-.852-1.524-.63z" fill="#fff"/><path d="M1.438 10.6a.9.9 0 100 1.8v-1.8zm15.01 1.536a.9.9 0 000-1.272l-5.727-5.728A.9.9 0 109.45 6.409l5.09 5.091-5.09 5.091a.9.9 0 001.272 1.273l5.728-5.728zm-15.01.264h14.374v-1.8H1.438v1.8z" fill="#fff"/></svg><svg fill="none" viewBox="0 0 42 28" id="burger" xmlns="http://www.w3.org/2000/svg"><rect width="42" height="4" rx="2" fill="#CF51CE"/><rect y="11.818" width="42" height="4" rx="2" fill="#CF51CE"/><rect x="10" y="24" width="32" height="4" rx="2" fill="#CF51CE"/></svg><svg fill="none" viewBox="0 0 110 110" id="extra" xmlns="http://www.w3.org/2000/svg"><g filter="url(#cfilter0_d_1525_19661)"><rect x="25" y="21" width="60" height="60" rx="15" fill="#CF51CE"/></g><g clip-path="url(#cclip0_1525_19661)" fill="#fff"><path d="M38.549 64.454h17.099v1.9a1.9 1.9 0 001.9 1.9h2.533c.554 0 1.078-.247 1.435-.663.01 0 .02 0 .03-.01a2.48 2.48 0 001.701.673h7.6a1.9 1.9 0 001.9-1.9c0-.326-.09-.653-.257-.93a1.868 1.868 0 00.633-2.533c.475-.297.791-.792.87-1.346a1.863 1.863 0 00-.474-1.524 1.883 1.883 0 00.326-2.038 1.914 1.914 0 00-1.741-1.128h-1.9V37.223a2.538 2.538 0 00-2.533-2.533H38.549a2.538 2.538 0 00-2.533 2.533V61.92a2.538 2.538 0 002.533 2.533zm21.532 2.534h-2.533a.638.638 0 01-.634-.634v-5.7c0-.346.287-.633.634-.633h2.533c.346 0 .633.287.633.634v5.7a.638.638 0 01-.633.633zm12.666-8.233a.638.638 0 01-.633.633h-1.9a.638.638 0 00-.634.633c0 .347.287.634.634.634h1.9c.346 0 .633.287.633.633a.638.638 0 01-.633.633h-1.9a.638.638 0 00-.634.633c0 .347.287.634.634.634h1.266c.347 0 .633.287.633.633a.638.638 0 01-.633.633h-1.266a.638.638 0 00-.634.634c0 .346.287.633.634.633h.633c.346 0 .633.287.633.633a.638.638 0 01-.633.634h-7.6a1.263 1.263 0 01-1.266-1.267v-5.334a4.048 4.048 0 001.682-2.137c.564-1.692.851-3.463.851-5.244 0-.09.06-.159.139-.188.217-.04.781-.139 1.316.91a4.26 4.26 0 01.435 1.95v1.81c0 .346.287.633.633.633h5.067a.64.64 0 01.643.634zm-5.067-1.9v-1.178a5.578 5.578 0 00-.574-2.523c-.623-1.217-1.573-1.781-2.671-1.583a1.454 1.454 0 00-1.188 1.435 15.54 15.54 0 01-.781 4.848 2.8 2.8 0 01-1.099 1.425 1.936 1.936 0 00-1.286-.514h-2.533a1.9 1.9 0 00-1.9 1.9v2.533h-17.1a1.263 1.263 0 01-1.266-1.267V41.022h31.665v15.833H67.68zM38.55 35.956H67.68c.703 0 1.267.564 1.267 1.267v2.533H37.282v-2.533c0-.703.564-1.267 1.267-1.267z"/><path fill-rule="evenodd" clip-rule="evenodd" d="M39.816 37.856a.638.638 0 01-.634.633.638.638 0 01-.633-.633c0-.346.287-.633.633-.633.346 0 .633.287.633.633zM42.349 37.856a.638.638 0 01-.634.633.638.638 0 01-.633-.633c0-.346.287-.633.633-.633.347 0 .634.287.634.633zM44.882 37.856a.638.638 0 01-.633.633.638.638 0 01-.634-.633c0-.346.287-.633.634-.633.346 0 .633.287.633.633z"/><path d="M41.082 54.322h10.133a1.9 1.9 0 001.9-1.9v-7.6a1.9 1.9 0 00-1.9-1.9H41.082a1.9 1.9 0 00-1.9 1.9v7.6a1.9 1.9 0 001.9 1.9zm1.553-1.267l2.93-4.611 1.405 1.761-1.801 2.85h-2.534zm8.58 0h-4.542l3.335-5.245 1.84 2.306v2.316a.636.636 0 01-.633.623zm-10.767-8.233c0-.347.287-.634.634-.634h10.133c.346 0 .633.287.633.634v3.265l-1.405-1.761a.642.642 0 00-.524-.237.637.637 0 00-.505.296l-1.712 2.692-1.692-2.118a.642.642 0 00-.525-.237.636.636 0 00-.504.297l-3.84 6.036h-.06a.638.638 0 01-.633-.633v-7.6z"/><path fill-rule="evenodd" clip-rule="evenodd" d="M42.981 46.088a.638.638 0 01-.633.634.638.638 0 01-.633-.634c0-.346.287-.633.633-.633.346 0 .633.287.633.633zM66.414 43.555H55.647a.638.638 0 00-.633.633c0 .346.287.633.633.633h10.767a.638.638 0 00.633-.633.638.638 0 00-.633-.633zM66.414 46.089H55.647a.638.638 0 00-.633.633c0 .347.287.633.633.633h10.767a.638.638 0 00.633-.633.638.638 0 00-.633-.633zM66.414 48.621H55.647a.638.638 0 00-.633.633c0 .347.287.634.633.634h10.767a.638.638 0 00.633-.634.638.638 0 00-.633-.633zM61.347 51.155h-5.7a.638.638 0 00-.633.634c0 .346.287.633.633.633h5.7a.638.638 0 00.633-.633.638.638 0 00-.633-.634zM54.382 56.855H39.815a.638.638 0 00-.633.633c0 .346.287.633.633.633h14.567a.638.638 0 00.633-.633.638.638 0 00-.633-.633zM52.482 59.387H39.815a.638.638 0 00-.633.633c0 .346.287.633.633.633h12.667a.638.638 0 00.633-.633.638.638 0 00-.633-.633z"/></g><defs><clipPath id="cclip0_1525_19661"><path fill="#fff" transform="translate(36.016 32.313)" d="M0 0h37.998v37.998H0z"/></clipPath><filter id="cfilter0_d_1525_19661" x="0" y="0" width="110" height="110" filterUnits="userSpaceOnUse" color-interpolation-filters="sRGB"><feFlood flood-opacity="0" result="BackgroundImageFix"/><feColorMatrix in="SourceAlpha" values="0 0 0 0 0 0 0 0 0 0 0 0 0 0 0 0 0 0 127 0" result="hardAlpha"/><feOffset dy="4"/><feGaussianBlur stdDeviation="12.5"/><feComposite in2="hardAlpha" operator="out"/><feColorMatrix values="0 0 0 0 0.917647 0 0 0 0 0.364706 0 0 0 0 0.733333 0 0 0 0.25 0"/><feBlend in2="BackgroundImageFix" result="effect1_dropShadow_1525_19661"/><feBlend in="SourceGraphic" in2="effect1_dropShadow_1525_19661" result="shape"/></filter></defs></svg><svg fill="none" viewBox="0 0 36 19" id="favicon" xmlns="http://www.w3.org/2000/svg"><mask id="da" style="mask-type:alpha" maskUnits="userSpaceOnUse" x="0" y="0" width="36" height="19"><ellipse cx="17.548" cy="9.567" rx="17.548" ry="8.872" fill="url(#dpaint0_linear_1525_19231)"/></mask><g mask="url(#da)"><ellipse cx="17.548" cy="9.567" rx="17.548" ry="8.872" fill="url(#dpaint1_linear_1525_19231)"/><path d="M23.128 12.03V2.168c0-.15.009-.315.026-.492.036-.177.07-.36.106-.546L7.15 12.03h15.978zm14.912 0v.692c0 .097-.062.177-.184.24-.106.052-.281.079-.527.079H25.34v5.403h-2.21v-5.403H5.518c-.264 0-.465-.027-.606-.08a.577.577 0 01-.29-.24l-.236-.625L23.102-.414h2.237V12.03h12.7z" fill="#fff"/></g><defs><linearGradient id="dpaint0_linear_1525_19231" x1="40.361" y1="-4.628" x2="30.345" y2="25.233" gradientUnits="userSpaceOnUse"><stop stop-color="#F0A"/><stop offset="1" stop-color="#8912DE"/></linearGradient><linearGradient id="dpaint1_linear_1525_19231" x1="40.361" y1="-4.628" x2="30.345" y2="25.233" gradientUnits="userSpaceOnUse"><stop stop-color="#F0A"/><stop offset="1" stop-color="#8912DE"/></linearGradient></defs></svg><svg fill="none" viewBox="0 0 110 110" id="founders" xmlns="http://www.w3.org/2000/svg"><g filter="url(#efilter0_d_1525_19690)"><rect x="25" y="21" width="60" height="60" rx="15" fill="#CF51CE"/></g><g clip-path="url(#eclip0_1525_19690)" fill="#fff"><path d="M54.552 70.258c-.704-.163-1.355-.38-1.788-.976-.272-.38-.488-.867-.705-1.3-.108-.217-.163-.326-.38-.38a16.105 16.105 0 01-4.12-1.41 16.102 16.102 0 01-5.311-4.227c-.163-.217-.325-.217-.542-.163-1.355.488-2.819-.108-3.524-1.355-.704-1.301-.433-2.873.76-3.74.216-.163.27-.325.162-.596a16.268 16.268 0 010-9.649c.054-.217.054-.38-.163-.542-1.192-.867-1.518-2.44-.813-3.74.705-1.301 2.168-1.843 3.578-1.355.27.108.38 0 .542-.163a16.104 16.104 0 015.312-4.228c1.247-.65 2.602-1.084 3.957-1.355.325-.054.542-.163.65-.596.217-1.301 1.464-2.168 2.819-2.168s2.548.975 2.819 2.276c.054.325.216.434.487.488 2.223.434 4.228 1.3 6.071 2.602 1.247.867 2.331 1.843 3.253 2.981.162.217.325.271.596.163 1.3-.488 2.819.108 3.523 1.3.705 1.301.434 2.873-.704 3.74-.217.163-.271.326-.217.597.976 3.198.976 6.45 0 9.648-.054.217-.054.38.163.543 1.084.813 1.463 2.33.92 3.577-.595 1.301-2.005 2.06-3.306 1.68-.596-.162-.867 0-1.246.434-2.385 2.71-5.42 4.445-8.944 5.204-.325.054-.542.217-.596.596-.326 1.138-1.084 1.789-2.169 2.114-.108 0-.162.054-.27.054-.326-.054-.543-.054-.814-.054zm.38-27.265c-4.553 0-8.294 3.74-8.294 8.293 0 4.553 3.74 8.294 8.294 8.294 4.553 0 8.293-3.74 8.293-8.294 0-4.553-3.74-8.293-8.293-8.293zm-2.819-6.83c-3.74.705-6.776 2.548-9.16 5.475.65.813.867 1.68.65 2.656 0 .108.108.217.163.27l2.114 1.14c.325.162.65.379.975.541 1.952-2.873 4.608-4.445 8.077-4.445 3.469 0 6.07 1.627 8.022 4.445.922-.488 1.789-.975 2.656-1.463.434-.217.705-.434.596-1.03-.162-.813.163-1.518.705-2.169-2.385-2.926-5.42-4.77-9.16-5.474-.38 1.138-1.139 1.789-2.277 2.06v2.385H54.28v-2.385c-1.03-.271-1.788-.922-2.168-2.006zm-9.16 24.772c2.439 2.927 5.42 4.77 9.16 5.474.38-1.084 1.138-1.788 2.277-2.06v-2.384h1.192v2.385c1.139.27 1.843.975 2.223 2.06 3.74-.76 6.775-2.548 9.16-5.475-.704-1.084-.759-1.41-.65-2.656a.414.414 0 00-.109-.271c-1.03-.597-2.114-1.139-3.198-1.735-1.951 2.873-4.607 4.445-8.076 4.445-3.47 0-6.125-1.626-8.077-4.445-1.084.596-2.114 1.138-3.144 1.735-.054.054-.162.162-.108.27.217 1.03-.054 1.898-.65 2.657zm3.36-5.692c-1.138-2.656-1.138-5.312 0-7.968-1.138-.596-2.222-1.247-3.36-1.843-.76.813-1.627 1.138-2.71 1.03-.977 3.198-.977 6.342 0 9.54 1.083-.108 1.95.271 2.71 1.03 1.138-.542 2.222-1.138 3.36-1.789zm20.598 1.843c.705-.704 1.518-1.138 2.548-1.084.054 0 .216-.163.27-.217.543-1.734.76-3.469.651-5.312-.054-1.355-.27-2.656-.759-3.957-1.03.109-1.897-.217-2.602-.921-.054-.054-.216-.054-.325 0-.488.27-.975.542-1.41.759-.541.325-1.137.596-1.68.921 1.139 2.656 1.139 5.312 0 7.968a64.796 64.796 0 003.307 1.843zM54.931 37.03c.976 0 1.79-.813 1.79-1.734 0-.976-.76-1.789-1.735-1.789-.976 0-1.789.813-1.789 1.789-.054.921.76 1.734 1.735 1.734zm-12.466 6.56c0-.977-.814-1.79-1.79-1.79-.975 0-1.788.813-1.788 1.79 0 .975.813 1.734 1.789 1.734 1.03 0 1.789-.813 1.789-1.735zm28.457 0c0-.977-.813-1.79-1.734-1.79-.976 0-1.79.76-1.79 1.735 0 .976.814 1.789 1.79 1.789.921.054 1.734-.76 1.734-1.735zM42.465 58.982c0-.975-.814-1.788-1.79-1.788-.975 0-1.788.813-1.788 1.788 0 .976.813 1.79 1.789 1.79a1.77 1.77 0 001.789-1.79zm28.457 0c0-.975-.813-1.788-1.734-1.788-.976 0-1.79.758-1.79 1.734s.814 1.789 1.79 1.789c.921.054 1.734-.759 1.734-1.735zm-15.99 6.56c-.976 0-1.789.812-1.789 1.734 0 .975.813 1.788 1.789 1.788.975 0 1.788-.813 1.788-1.788 0-.976-.813-1.735-1.788-1.735z"/><path d="M53.035 50.58c-1.138-1.029-1.301-2.276-.976-3.631.326-1.41 1.735-2.331 3.09-2.223 1.572.163 2.602 1.356 2.71 2.928.055 1.084-.162 2.06-1.084 2.873.163.108.326.27.488.38a68.215 68.215 0 002.657 1.571c.216.109.325.271.27.542v1.572c.055.705-.325 1.193-.921 1.41a7.574 7.574 0 01-1.843.433c-1.952.163-3.957.217-5.909-.108-.325-.054-.65-.163-.976-.271-.65-.271-1.03-.759-.975-1.464v-1.626c0-.217.054-.325.216-.434.922-.542 1.79-1.084 2.71-1.626.218-.054.38-.163.543-.325zm1.572 4.88c1.084-.055 1.843-.055 2.602-.109.488-.054 1.03-.162 1.518-.27.27-.055.325-.218.325-.489.163-.867-.163-1.463-1.03-1.789a1.183 1.183 0 01-.27-.162c-.651-.434-1.302-.922-1.952-1.355-.055-.055-.217-.055-.326-.055h-1.246c-.109 0-.272 0-.326.055-.704.758-1.626 1.192-2.493 1.68-.542.325-.813.65-.705 1.301.054.759.054.759.759.976h.108c1.193.054 2.277.162 3.036.217zm-1.464-7.481v.488c.055.921.813 1.572 1.68 1.626.868.054 1.681-.542 1.79-1.41.054-.487.054-.975-.054-1.409-.271-1.084-1.572-1.626-2.548-1.084-.597.38-.868 1.03-.868 1.789zM55.529 35.838h-1.138v-1.139h1.138v1.139zM41.271 44.13h-1.138V42.99h1.138v1.139zM69.73 42.991v1.139h-1.138V42.99h1.138zM41.271 59.579h-1.138V58.44h1.138v1.139zM69.73 58.44v1.139h-1.138V58.44h1.138zM55.529 66.734v1.139h-1.138v-1.139h1.138z"/></g><defs><clipPath id="eclip0_1525_19690"><path fill="#fff" transform="translate(35.978 32.313)" d="M0 0h37.998v37.998H0z"/></clipPath><filter id="efilter0_d_1525_19690" x="0" y="0" width="110" height="110" filterUnits="userSpaceOnUse" color-interpolation-filters="sRGB"><feFlood flood-opacity="0" result="BackgroundImageFix"/><feColorMatrix in="SourceAlpha" values="0 0 0 0 0 0 0 0 0 0 0 0 0 0 0 0 0 0 127 0" result="hardAlpha"/><feOffset dy="4"/><feGaussianBlur stdDeviation="12.5"/><feComposite in2="hardAlpha" operator="out"/><feColorMatrix values="0 0 0 0 0.917647 0 0 0 0 0.364706 0 0 0 0 0.733333 0 0 0 0.25 0"/><feBlend in2="BackgroundImageFix" result="effect1_dropShadow_1525_19690"/><feBlend in="SourceGraphic" in2="effect1_dropShadow_1525_19690" result="shape"/></filter></defs></svg><svg fill="none" viewBox="0 0 11 9" id="header-arrow-down" xmlns="http://www.w3.org/2000/svg"><path d="M6.469 8.434a1.09 1.09 0 01-1.845 0L.934 2.593A1.09 1.09 0 011.858.919h7.379c.859 0 1.38.947.922 1.674l-3.69 5.841z" fill="#331A2F" fill-opacity=".9"/></svg><svg fill="none" viewBox="0 0 241 72" id="logo" xmlns="http://www.w3.org/2000/svg"><path d="M85.193 61.246c-.764 0-1.646-.117-2.645-.35l-3.155-.861.86-2.581c1.785.637 3.273.956 4.462.956.638 0 1.169-.15 1.594-.447.425-.297.637-.7.637-1.21s-.138-.893-.414-1.148c-.276-.255-.786-.478-1.53-.669l-1.72-.446c-2.38-.616-3.57-2.019-3.57-4.207 0-1.317.5-2.4 1.498-3.25 1.02-.85 2.348-1.275 3.983-1.275.659 0 1.434.117 2.327.35l3.155.861-.86 2.581c-1.722-.637-3.028-.956-3.92-.956-.595 0-1.095.16-1.498.478-.404.298-.606.69-.606 1.18 0 .51.138.892.415 1.147.276.255.785.478 1.53.669l1.688.446c1.275.34 2.188.86 2.74 1.561.553.68.83 1.562.83 2.646 0 1.296-.49 2.379-1.467 3.25-.977.85-2.422 1.275-4.334 1.275zm13.63 0c-1.594 0-2.72-.393-3.378-1.18-.637-.785-.956-1.986-.956-3.6v-7.617H92.13v-2.804h2.358v-3.729l4.047-.796v4.525h3.505v2.804h-3.505v7.68c0 1.254.51 1.88 1.53 1.88.616 0 1.274-.19 1.975-.573l.638 2.39c-1.169.68-2.454 1.02-3.856 1.02zm9.923 0c-1.445 0-2.592-.446-3.442-1.339a4.461 4.461 0 01-1.275-3.186c0-.914.298-1.647.893-2.2.616-.573 1.572-1.02 2.868-1.338l5.13-1.275v-1.306c0-.616-.191-1.105-.573-1.466-.361-.361-.871-.542-1.53-.542-.744 0-2.422.563-5.035 1.69l-1.115-2.582 3.632-1.338c1.105-.404 1.913-.606 2.422-.606 1.934 0 3.453.51 4.558 1.53 1.126.998 1.689 2.315 1.689 3.951v5.482c0 .403.063 1.009.191 1.816.148.786.34 1.455.573 2.008l-3.473.7c-.425-.467-.871-1.115-1.339-1.943-1.423 1.296-2.815 1.944-4.174 1.944zm1.434-2.836c.828 0 1.742-.478 2.74-1.434v-3.22l-3.186.925c-1.02.297-1.53.86-1.53 1.689 0 .637.18 1.137.542 1.498.361.361.839.542 1.434.542zm15.205 2.836c-1.593 0-2.719-.393-3.378-1.18-.637-.785-.956-1.986-.956-3.6v-7.617h-2.358v-2.804h2.358v-3.729l4.047-.796v4.525h3.506v2.804h-3.506v7.68c0 1.254.51 1.88 1.53 1.88.616 0 1.275-.19 1.976-.573l.637 2.39c-1.168.68-2.454 1.02-3.856 1.02zm45.009-.287h-4.047v-8.7c0-1.275-.191-2.199-.574-2.772-.361-.595-.945-.893-1.752-.893-.808 0-1.679.478-2.614 1.434V60.96h-4.047v-8.7c0-1.275-.18-2.199-.542-2.772-.361-.595-.956-.893-1.784-.893-.786 0-1.657.478-2.613 1.434V60.96h-4.048V50.283c0-.403-.074-.998-.223-1.784-.127-.808-.308-1.488-.541-2.04l3.441-.7c.446.445.903 1.093 1.371 1.943 1.338-1.296 2.73-1.944 4.174-1.944 2.146 0 3.601.754 4.366 2.263.468-.616 1.137-1.148 2.008-1.594.871-.446 1.742-.669 2.613-.669 1.615 0 2.815.467 3.601 1.402.807.935 1.211 2.39 1.211 4.366v9.433zm7.348.287c-1.445 0-2.592-.446-3.442-1.339a4.461 4.461 0 01-1.275-3.186c0-.914.298-1.647.893-2.2.616-.573 1.572-1.02 2.868-1.338l5.131-1.275v-1.306c0-.616-.192-1.105-.574-1.466-.361-.361-.871-.542-1.53-.542-.743 0-2.422.563-5.035 1.69l-1.115-2.582 3.633-1.338c1.104-.404 1.912-.606 2.422-.606 1.933 0 3.452.51 4.557 1.53 1.126.998 1.689 2.315 1.689 3.951v5.482c0 .403.063 1.009.191 1.816.149.786.34 1.455.574 2.008l-3.474.7c-.425-.467-.871-1.115-1.338-1.943-1.424 1.296-2.815 1.944-4.175 1.944zm1.434-2.836c.828 0 1.742-.478 2.741-1.434v-3.22l-3.187.925c-1.02.297-1.53.86-1.53 1.689 0 .637.181 1.137.542 1.498.361.361.839.542 1.434.542zm14.465 2.549h-4.047V50.283c0-.403-.075-.998-.223-1.784-.128-.808-.308-1.488-.542-2.04l3.442-.7c.658.658 1.115 1.55 1.37 2.676.425-.85.988-1.509 1.689-1.976a4.205 4.205 0 012.326-.7c.468 0 .893.073 1.275.222l-.701 3.474h-1.052c-.998 0-1.784.244-2.358.733-.552.467-.945 1.253-1.179 2.358v8.413zm21.045 0h-4.972l-4.939-7.712v7.712h-4.048V39.671l4.048-.796v13.257l5.035-6.087h4.557l-5.991 6.66 6.31 8.254zm7.254.287c-2.401 0-4.217-.712-5.45-2.135-1.211-1.445-1.816-3.336-1.816-5.673s.627-4.196 1.88-5.577c1.254-1.402 2.996-2.103 5.226-2.103 4.313 0 6.47 2.241 6.47 6.724 0 .468-.054.86-.16 1.18h-9.241c0 1.593.286 2.782.86 3.569.595.785 1.413 1.179 2.454 1.179 1.168 0 2.698-.425 4.589-1.275l1.115 2.581-3.378 1.243c-.574.191-1.423.287-2.549.287zm-.383-12.652c-.85 0-1.519.298-2.007.893-.468.594-.701 1.338-.701 2.23h5.194c0-2.082-.829-3.123-2.486-3.123zm14.628 12.652c-1.593 0-2.719-.393-3.378-1.18-.637-.785-.956-1.986-.956-3.6v-7.617h-2.358v-2.804h2.358v-3.729l4.048-.796v4.525h3.505v2.804h-3.505v7.68c0 1.254.509 1.88 1.529 1.88.616 0 1.275-.19 1.976-.573l.637 2.39c-1.168.68-2.453 1.02-3.856 1.02z" fill="#54618E"/><path d="M143.753 60.959h-3.856v-4.908h-8.7l-.86-2.485 9.082-13.002h4.334v12.492h2.039v2.995h-2.039v4.908zm-3.856-7.903V44.77l-5.641 8.286h5.641z" fill="#D653D2"/><mask id="ga" style="mask-type:alpha" maskUnits="userSpaceOnUse" x="0" y="0" width="61" height="32"><ellipse cx="30.208" cy="16.098" rx="30.208" ry="15.303" fill="url(#gpaint0_linear_1457_20129)"/></mask><g mask="url(#ga)"><ellipse cx="30.208" cy="16.098" rx="30.208" ry="15.303" fill="url(#gpaint1_linear_1457_20129)"/><path d="M39.813 20.345V3.336c0-.26.015-.543.045-.849.06-.306.121-.62.181-.941L12.31 20.345h27.504zm25.67 0v1.194c0 .168-.106.306-.318.413-.181.092-.483.137-.906.137h-20.64v9.32h-3.806v-9.32H9.499c-.453 0-.8-.045-1.042-.137-.242-.107-.408-.245-.498-.413l-.408-1.08L39.768-1.116h3.851v21.462h21.863z" fill="#fff"/></g><defs><linearGradient id="gpaint0_linear_1457_20129" x1="69.478" y1="-8.386" x2="52.175" y2="43.099" gradientUnits="userSpaceOnUse"><stop stop-color="#F0A"/><stop offset="1" stop-color="#8912DE"/></linearGradient><linearGradient id="gpaint1_linear_1457_20129" x1="69.478" y1="-8.386" x2="52.175" y2="43.099" gradientUnits="userSpaceOnUse"><stop stop-color="#F0A"/><stop offset="1" stop-color="#8912DE"/></linearGradient></defs></svg><svg fill="none" viewBox="0 0 17 17" id="phone" xmlns="http://www.w3.org/2000/svg"><path d="M11.1 11.513l1.347-1.343a1.317 1.317 0 011.406-.288l1.64.654a1.31 1.31 0 01.818 1.198v2.997a1.297 1.297 0 01-.854 1.21c-.165.06-.34.088-.516.079C3.444 15.306 1.124 5.597.686 1.88a1.297 1.297 0 01.77-1.333c.167-.075.35-.112.534-.111h2.902a1.3 1.3 0 011.202.815l.655 1.636a1.291 1.291 0 01-.282 1.402L5.121 5.633s.775 5.232 5.98 5.88z" fill="#331A2F"/></svg><svg fill="none" viewBox="0 0 17 17" id="phone-hover" xmlns="http://www.w3.org/2000/svg"><path d="M11.1 11.513l1.347-1.343a1.317 1.317 0 011.406-.288l1.64.654a1.31 1.31 0 01.818 1.198v2.997a1.297 1.297 0 01-.854 1.21c-.165.06-.34.088-.516.079C3.444 15.306 1.124 5.597.686 1.88a1.297 1.297 0 01.77-1.333c.167-.075.35-.112.534-.111h2.902a1.3 1.3 0 011.202.815l.655 1.636a1.291 1.291 0 01-.282 1.402L5.121 5.633s.775 5.232 5.98 5.88z" fill="#CF51CE"/></svg><svg fill="none" viewBox="0 0 110 110" id="practice" xmlns="http://www.w3.org/2000/svg"><g filter="url(#jfilter0_d_1525_19682)"><rect x="25" y="21" width="60" height="60" rx="15" fill="#CF51CE"/></g><path d="M46.564 69.33c-.689-.306-.995-.766-.918-1.53v-1.225h-5.893c-.919 0-1.378-.46-1.378-1.378v-1.148c0-.383.23-.612.536-.612.306 0 .535.23.535.612v1.148c0 .153.077.23.23.23h5.97v-3.521c-1.455-.918-1.914-1.53-2.143-3.214-.919 0-1.837-.077-2.679 0-.765.076-1.301.918-1.377 1.76v1.071c0 .383-.23.613-.536.613-.306 0-.536-.23-.536-.613V60.3c.077-.919.536-1.684 1.301-2.22.077-.076.153-.076.23-.153-.306-.995-.69-1.913-.919-2.832-1.224-4.898-.459-9.413 2.373-13.622.153-.23.23-.383.076-.69a1.983 1.983 0 01.383-2.295c.612-.613 1.454-.842 2.296-.46.153.154.306.077.46-.076.918-.612 1.76-1.224 2.678-1.837.383-.23.689-.153.842.153.153.306 0 .536-.306.766-.842.612-1.684 1.148-2.526 1.76-.153.077-.153.23-.076.383.306.765.153 1.53-.383 2.066-.536.612-1.225.842-2.067.612-.23-.076-.306 0-.459.153-1.53 2.22-2.449 4.669-2.678 7.424-.307 2.755.153 5.357 1.224 7.883.077.23.23.306.536.306h3.138c.076-.306 0-.46-.153-.612-.919-.766-1.531-1.684-1.684-2.832 0-.23-.077-.306-.306-.383-1.378-.382-1.837-2.066-.842-3.137.076-.077.153-.306.153-.46V46.83c0-1.684 1.071-2.908 2.602-3.215.23-.076.536-.076.765-.076h3.444c.766 0 1.531.23 2.143.765.077.077.23.077.306.077.69-.306 1.378-.383 2.143-.383h1.072c.306 0 .536.23.612.536 0 .306-.23.536-.612.536h-1.607a2.602 2.602 0 00-2.602 2.449c-.077 1.148 0 2.296 0 3.444v.153c.306.076.306-.077.382-.306a6.04 6.04 0 01.919-2.296c.306-.383.459-.46.918-.306 1.454.459 2.832.841 4.362.995.383 0 .842 0 1.225-.077.23-.077.536-.23.689-.383.306-.306.688-.306.918.077.383.612.689 1.3.765 1.99 0 .153.077.382.307.306v-.23-2.296c0-.383-.077-.612-.536-.612-.306-.077-.46-.306-.46-.612 0-.613-.229-1.072-.612-1.531a2.17 2.17 0 00-1.683-.765h-.613a.523.523 0 01-.535-.536c0-.306.23-.536.535-.536.842-.076 1.684.077 2.373.46.765-.766 1.684-.995 2.679-.919h3.367c1.454 0 2.602.918 2.985 2.296 0 .076.076.23.23.306.459.306.688.766.688 1.301v2.602c0 .153.077.383.23.46.995 1.071.536 2.678-.842 3.137-.23.077-.23.154-.306.306-.23 1.148-.766 2.144-1.684 2.909-.153.076-.153.306-.306.459l.076.077h3.215c.306 0 .383-.077.536-.307 1.071-2.525 1.454-5.127 1.224-7.806-.23-2.679-1.148-5.128-2.602-7.347-.153-.23-.306-.306-.536-.23-.765.23-1.454 0-1.99-.612-.535-.612-.688-1.301-.382-2.066-.077 0-.153-.154-.306-.307-2.22-1.76-4.745-2.908-7.577-3.367-.306-.077-.46 0-.612.306-.766 1.378-2.756 1.301-3.52 0-.154-.23-.307-.306-.537-.23l-2.755.69a.845.845 0 01-.612 0c-.153-.077-.306-.307-.23-.46.077-.153.23-.46.383-.46.918-.305 1.76-.458 2.679-.688h.153c.459 0 .688-.153.842-.612.382-.919 1.071-1.301 1.99-1.301.841.076 1.53.459 1.836 1.3.153.307.306.384.612.46 3.062.46 5.74 1.607 8.113 3.597.23.153.383.23.689.077a2.013 2.013 0 012.22.535c.535.613.688 1.531.305 2.296-.076.153-.153.306 0 .536 3.444 5.128 3.904 10.562 1.608 16.302 0 .076-.077.153-.077.23.153.076.23.152.383.305.765.613 1.148 1.378 1.148 2.373v4.669c0 .918-.46 1.377-1.378 1.377h-5.893v1.225c.077.765-.23 1.224-.918 1.53-5.893-.076-11.633-.076-17.45-.076zm12.551-8.725c-.23 2.449-2.066 3.75-3.826 3.75-.919 0-1.684-.23-2.373-.842-.995-.765-1.454-1.76-1.53-2.985h-2.45c-1.377 0-2.219.842-2.219 2.22v5.051c0 .306.077.46.46.46H63.477c.153 0 .383.076.383-.23v-5.434c0-.995-.842-1.913-1.76-1.913-1.072-.154-1.99-.077-2.986-.077zm-.23-10.485c-2.448.842-4.591-.077-6.81-.612-.077.076-.154.153-.154.306-.382.535-.535 1.148-.535 1.76 0 1.301-.077 2.602.076 3.827.23 1.99 2.067 3.444 4.056 3.29 1.99-.153 3.597-1.76 3.597-3.75v-3.444c0-.459-.153-.918-.23-1.377zm-14.923-1.148c-.077.46-.23.842-.306 1.224a27.03 27.03 0 000 3.52c.153 2.067 1.99 3.445 3.98 3.139.994-.153 1.836-.765 2.372-1.607-.077 0-.153-.077-.153-.077-1.301-.536-1.76-1.76-1.072-2.985 0-.076.077-.076.077-.153v-2.22c-1.684 0-3.214-.382-4.898-.841zm27.016 16.531v-5.128c0-.765-.612-1.53-1.377-1.607-.919-.076-1.76 0-2.68 0-.229 1.684-.688 2.373-2.142 3.215v3.52h6.2zM60.493 55.171c0 .077.077.153.077.153.765 1.148 2.296 1.76 3.597 1.454 1.454-.382 2.525-1.53 2.602-2.984.076-1.072.076-2.22 0-3.291 0-.383-.153-.842-.153-1.225-1.76.842-3.368.306-5.051 0v2.296c0 .23.076.383.153.536.535 1.071.153 2.372-.995 2.831-.077.153-.153.23-.23.23zm-.689-9.95l.69 1.608c.076.23.152.306.305.46.23.229.46.458.689.764l.306.307c.536.153.995.306 1.53.306.766.076 1.455.076 2.22 0 .23 0 .383-.306.536-.46.153-.153.306-.382.46-.382.152 0 .382.153.535.306.23.306.383.612.536.995v-1.607c0-.077-.153-.23-.23-.306-.383-.077-.536-.306-.536-.69-.076-.994-.841-1.76-1.836-1.76h-3.904c-.535-.076-.995.154-1.3.46zm-16.99 3.75c.153-.229.306-.458.383-.688.306-.46.459-.536.994-.383.766.23 1.531.383 2.296.613.766.153 1.608.306 2.45.153-.077-1.301.076-2.526.995-3.444-.383-.306-.766-.46-1.225-.46H44.88c-1.148 0-1.99.766-2.066 1.914-.077.689 0 1.53 0 2.296zm14.005 10.563c-1.224.306-1.607.382-3.214 0 .23.918-.306 1.148-1.071.994.076 1.531 1.3 2.756 2.831 2.756 1.531-.077 2.756-1.301 2.68-2.68-.307-.076-.69-.076-.843-.229-.306-.153-.306-.535-.383-.842zM46.03 60.91c.382-.383.765-.689 1.147-.995.613-.383 1.225-.46 1.99-.46.153 0 .306-.076.306-.152.077-.153.077-.383.153-.689-.688.077-1.148-.077-1.071-.918a5.111 5.111 0 01-2.832.076c-.076.306-.153.612-.306.765-.153.154-.536.154-.765.23-.077.842.535 1.76 1.377 2.143zm15.918-3.138c-.153.765-.153.765-.995.919-.076.688 0 .765.69.765.841 0 1.606.23 2.219.842.23.153.382.383.612.612.918-.383 1.607-1.454 1.454-2.22-.842-.076-.918 0-.995-.918-1.071.306-1.99.23-2.985 0zM43.273 40.936c.536 0 .995-.46.995-.995 0-.536-.46-.995-.918-.995-.536 0-.995.383-.995.918a.93.93 0 00.918 1.072zm11.94-5.358c.535 0 .994-.459.994-.994 0-.536-.459-.919-.995-.995-.535 0-.995.459-.995.995.077.612.46.994.995.994zm12.015 5.358c.536 0 .995-.46.995-.995 0-.536-.383-.919-.918-.995-.536 0-.995.383-.995.918a.93.93 0 00.918 1.072zm-14.77 18.52c.076-.458-.077-.764-.383-.764-.46-.077-.919 0-1.455 0 0 .306-.076.535-.076.765h1.913zm7.346-.764h-1.148c-.535 0-.765.23-.612.765h1.913c-.076-.306-.076-.536-.153-.765zm1.072-1.148c0-.69-.689-.766-.919-1.225l-.612 1.225h1.53zm-9.796 0c-.23-.383-.383-.766-.613-1.148-.23.23-.382.382-.612.535-.23.153-.46.306-.306.613h1.53zm-.842-3.444v-1.76c-.46.076-.69.382-.69.765 0 .459.23.842.69.995zm9.949-1.76v1.76c.46-.077.689-.46.689-.842.076-.46-.23-.766-.689-.919zm-17.603-1.072c-.382.153-.535.46-.535.765 0 .306.153.536.535.689v-1.454zm25.333 1.454c.382-.153.536-.383.536-.765 0-.306-.154-.536-.536-.69v1.455z" fill="#fff"/><defs><filter id="jfilter0_d_1525_19682" x="0" y="0" width="110" height="110" filterUnits="userSpaceOnUse" color-interpolation-filters="sRGB"><feFlood flood-opacity="0" result="BackgroundImageFix"/><feColorMatrix in="SourceAlpha" values="0 0 0 0 0 0 0 0 0 0 0 0 0 0 0 0 0 0 127 0" result="hardAlpha"/><feOffset dy="4"/><feGaussianBlur stdDeviation="12.5"/><feComposite in2="hardAlpha" operator="out"/><feColorMatrix values="0 0 0 0 0.917647 0 0 0 0 0.364706 0 0 0 0 0.733333 0 0 0 0.25 0"/><feBlend in2="BackgroundImageFix" result="effect1_dropShadow_1525_19682"/><feBlend in="SourceGraphic" in2="effect1_dropShadow_1525_19682" result="shape"/></filter></defs></svg><svg fill="none" viewBox="0 0 110 110" id="simply" xmlns="http://www.w3.org/2000/svg"><g filter="url(#kfilter0_d_1525_19647)"><rect x="25" y="21" width="60" height="60" rx="15" fill="#CF51CE"/></g><g clip-path="url(#kclip0_1525_19647)" fill="#fff"><path d="M63.61 43.519l-3.266 3.265c1.306 1.722 1.781 3.682 1.306 5.82-.415 1.662-1.365 3.027-2.79 3.977-2.79 1.96-6.531 1.544-8.847-.95-2.375-2.553-2.494-6.294-.238-8.965 2.02-2.435 5.938-3.622 9.441-1.07 1.069-1.068 2.138-2.137 3.206-3.265-1.9-1.603-4.097-2.553-6.71-2.731v2.078c0 .594-.296.95-.77.95-.476 0-.773-.356-.773-.95v-4.572-.534c-1.484.06-2.91.356-4.275.89-4.75 1.9-7.778 5.344-9.025 10.332 0 .119-.06.178-.06.297-.118.415-.474.653-.89.593-.415-.118-.653-.475-.594-.95.416-2.137 1.247-4.096 2.494-5.818 2.969-3.978 6.828-6.294 11.756-6.77.179 0 .416-.059.654-.059V33.07c0-.713.237-1.069.771-1.069.475 0 .772.356.772 1.01v5.106c2.97.237 5.582 1.306 7.778 3.206.357-.356.654-.713 1.07-1.128-.773-.535-1.485-1.128-2.316-1.603-1.307-.772-2.672-1.366-4.157-1.663-.118 0-.237-.06-.297-.06a.762.762 0 01-.534-.95c.119-.415.475-.652.95-.534 1.9.357 3.622 1.07 5.225 2.138.772.534 1.484 1.069 2.375 1.722.06-.238.238-.416.238-.594v-2.434c0-.297.118-.654.356-.832.95-1.009 1.96-2.018 2.969-3.028.296-.297.593-.415.95-.237.356.118.475.475.475.831v2.316h2.315c.416 0 .713.118.89.475.12.415 0 .712-.296.95-1.01.95-1.96 1.959-2.91 2.909a1.31 1.31 0 01-.89.356c-.772.06-1.603 0-2.375 0-.178 0-.416.178-.653.238 1.306 1.484 2.256 2.968 2.969 4.69.712 1.722 1.068 3.444 1.187 5.344h2.078c.594 0 .95.297.95.772 0 .475-.356.772-.95.772H68.122c-.356 1.306-.534 2.612-1.01 3.8-1.543 3.978-4.393 6.59-8.49 7.837-.118 0-.178.06-.297.06-.475.118-.83-.119-.95-.535-.118-.415.12-.771.594-.95.297-.118.594-.178.831-.297 4.513-1.721 7.066-5.046 7.6-9.796v-.178h-2.018c-.594 0-.95-.297-.95-.772 0-.475.356-.772.95-.772h5.106c-.238-3.385-1.425-6.353-3.622-8.847l-1.069 1.069c.06.059.12.178.238.297 1.128 1.365 1.96 2.909 2.434 4.63.238.713.06 1.129-.415 1.307-.475.119-.832-.178-1.01-.831-.594-1.544-1.365-2.969-2.434-4.275zm-5.522 3.265c-1.781-1.484-4.869-1.603-6.947.535-2.019 2.137-2.019 5.284.06 7.362 2.078 2.078 5.284 2.138 7.362.119 2.137-2.019 2.137-5.106.594-7.006l-.832.831c-.237.178-.178.356-.059.594.416.831.594 1.662.356 2.553-.475 2.078-2.612 3.384-4.63 2.85-2.08-.535-3.326-2.731-2.732-4.75.653-2.078 2.85-3.325 4.81-2.494.83.356 1.305.119 1.721-.475.178 0 .238-.06.297-.119zm-1.069 3.207c-.534.534-1.01 1.068-1.484 1.543-.297.297-.713.297-1.01 0-.296-.297-.356-.653-.118-1.009l.356-.356 1.247-1.247c-1.128-.475-2.256-.119-2.85.772a2.254 2.254 0 00.297 2.85c.772.772 1.9.89 2.85.297.83-.594 1.187-1.722.712-2.85zm10.569-11.578h1.84c.12 0 .297 0 .357-.06l1.603-1.603h-1.306c-.535 0-.832-.297-.832-.831v-1.366l-1.543 1.544a.453.453 0 00-.12.297c-.058.712 0 1.306 0 2.019z"/><path d="M38.97 51.772H36.89c-.593 0-.95-.297-.95-.772 0-.475.357-.713.891-.772h5.106c.238-1.01.356-1.96.653-2.91.238-.771.594-1.543.891-2.256.237-.475.653-.653 1.069-.415.415.237.534.653.237 1.128-.712 1.425-1.187 2.91-1.247 4.512h1.9c.713 0 1.07.238 1.128.772 0 .535-.356.772-1.128.772h-4.928c.06 1.247.238 2.434.653 3.563 1.782 5.165 5.285 8.43 10.57 9.737.177.06.415.119.593.238.297.237.416.534.237.89-.178.356-.475.535-.89.475-1.84-.415-3.622-1.069-5.225-2.078-4.275-2.969-6.769-7.006-7.363-12.231 0-.178-.06-.356-.06-.534 0 0 0-.06-.059-.12z"/><path d="M55.773 66.972v2.078c0 .594-.297.95-.772.95-.475 0-.772-.356-.772-.95v-4.63-.476c-.772-.119-1.484-.237-2.197-.416-4.81-1.246-7.956-4.215-9.44-8.965-.06-.178-.12-.297-.12-.475 0-.416.179-.653.535-.772.356-.119.712 0 .89.356l.179.535c1.306 4.512 5.522 7.956 10.153 8.134v-2.019c0-.594.297-.95.712-.95.475 0 .772.356.772.95v5.166c.95-.178 1.9-.297 2.79-.475 1.604-.356 3.029-1.01 4.395-1.9.118-.06.237-.178.356-.238.356-.118.653-.059.89.238.238.297.179.653-.059.89-.119.12-.297.238-.475.357-2.316 1.484-4.869 2.315-7.6 2.553 0 0-.119.06-.237.06zM67.944 59.965c-.772 0-1.069-.593-.772-1.247a56.83 56.83 0 001.544-3.325c.178-.474.297-1.009.415-1.484.119-.475.475-.712.89-.653.416.119.654.475.595 1.01a13.906 13.906 0 01-2.138 5.224 1.784 1.784 0 01-.534.475zM48.173 41.678c-.178-.178-.475-.356-.594-.653-.178-.357.06-.654.356-.891 1.128-.712 2.375-1.306 3.681-1.603.416-.119.713 0 .891.356.238.416.06.95-.416 1.128-1.246.356-2.375.831-3.443 1.544-.06 0-.178 0-.475.119zM46.807 42.806c0 .416-.357.713-.772.713-.416 0-.713-.357-.713-.772 0-.416.356-.713.772-.713.356 0 .713.356.713.772zM66.638 61.569a.786.786 0 01-.772.772c-.416 0-.772-.297-.772-.713 0-.415.297-.772.712-.772.475 0 .832.297.832.713z"/></g><defs><clipPath id="kclip0_1525_19647"><path fill="#fff" transform="translate(36 32)" d="M0 0h38v38H0z"/></clipPath><filter id="kfilter0_d_1525_19647" x="0" y="0" width="110" height="110" filterUnits="userSpaceOnUse" color-interpolation-filters="sRGB"><feFlood flood-opacity="0" result="BackgroundImageFix"/><feColorMatrix in="SourceAlpha" values="0 0 0 0 0 0 0 0 0 0 0 0 0 0 0 0 0 0 127 0" result="hardAlpha"/><feOffset dy="4"/><feGaussianBlur stdDeviation="12.5"/><feComposite in2="hardAlpha" operator="out"/><feColorMatrix values="0 0 0 0 0.917647 0 0 0 0 0.364706 0 0 0 0 0.733333 0 0 0 0.25 0"/><feBlend in2="BackgroundImageFix" result="effect1_dropShadow_1525_19647"/><feBlend in="SourceGraphic" in2="effect1_dropShadow_1525_19647" result="shape"/></filter></defs></svg><svg fill="none" viewBox="0 0 48 47" id="spent" xmlns="http://www.w3.org/2000/svg"><path d="M0 43.075v-19.95c.3-.975 1.05-1.5 1.875-1.95.3-.15.6-.3.9-.375.375-.075.45-.3.45-.6V6.1c0-3.375 2.4-5.85 5.625-5.85h33.375c1.575 0 2.55.975 2.55 2.625V9.925c2.25.75 3.225 2.025 3.225 4.35v23.25c0 .45 0 .9-.15 1.35-.45 1.8-2.025 3-4.05 3H23.25v.3c.075 1.125-.45 1.95-1.425 2.475-.825.45-1.725.825-2.55 1.05-2.4.675-4.95.9-7.425.9-2.925 0-5.85-.225-8.7-1.2C1.8 45.025.525 44.5 0 43.075zM46.425 21.85v-.525-7.2c0-1.725-.975-2.7-2.7-2.7H9c-1.5 0-2.85-.45-3.975-1.425-.075-.075-.15-.075-.225-.15v10.2c.15 0 .3 0 .45-.075 3.975-.825 7.95-.825 12-.15 1.575.225 3.15.675 4.575 1.5.9.675 1.425 1.425 1.425 2.625-.075 5.25 0 10.425 0 15.675v.6h20.625c1.575 0 2.625-.975 2.625-2.625v-7.275-.45h-3.75c-.6 0-1.2-.075-1.8-.3-1.725-.675-2.7-2.625-2.325-4.425.375-1.875 1.95-3.225 3.825-3.225 1.2-.075 2.55-.075 3.975-.075zM43.2 6.625H7.575c-.825 0-1.2-.3-1.2-.825 0-.525.375-.825 1.2-.825H43.2V2.95c0-.9-.225-1.125-1.125-1.125h-33c-.375 0-.75 0-1.05.075C6 2.35 4.65 4.225 4.8 6.1c.225 2.1 1.875 3.675 3.975 3.675h34.05c.15 0 .225 0 .375-.075V6.625zm-31.575 14.4c-2.25 0-4.5.15-6.675.75-.975.3-1.95.675-2.85 1.125-.675.375-.675.75 0 1.125.525.3 1.05.525 1.575.75 1.725.6 3.45.825 5.25.975 3.15.225 6.3.15 9.45-.6.9-.225 1.8-.6 2.7-1.05.75-.375.75-.825 0-1.275-.45-.3-.975-.525-1.5-.675-2.625-.9-5.25-1.05-7.95-1.125zm-10.05 4.65c0 .675.075 1.35 0 2.025-.075.6.225 1.05.75 1.275 1.125.375 2.175.9 3.375 1.125 3.15.675 6.3.675 9.525.375a18.39 18.39 0 005.25-1.2c.825-.375 1.35-.825 1.2-1.875-.075-.525 0-1.125 0-1.65-6.525 2.325-13.8 2.325-20.1-.075zm0 9.6c0 .75.075 1.425 0 2.1 0 .6.225.975.675 1.125.825.375 1.65.75 2.55.975 4.2 1.05 8.475.975 12.75.225 1.2-.225 2.4-.525 3.45-1.2.225-.15.6-.375.6-.675.075-.825 0-1.725 0-2.625-3.225 1.5-6.6 1.8-9.975 1.8-3.45.075-6.825-.225-10.05-1.725zm0 4.8v2.175c0 .525.15.9.6 1.125.825.375 1.575.75 2.4.975 4.275 1.05 8.625 1.05 12.975.225 1.125-.225 2.25-.75 3.375-1.125.225-.075.6-.375.6-.6.075-.825 0-1.725 0-2.625-6.3 2.25-13.65 2.25-19.95-.15zm20.025-9.6c-3.225 1.5-6.6 1.8-9.975 1.8s-6.825-.3-9.975-1.8V32.8c0 .375.15.675.45.825.6.3 1.2.6 1.8.825 1.95.675 4.05.9 6.075.975 2.85.15 5.7 0 8.475-.75.9-.225 1.8-.675 2.625-1.05.225-.075.525-.45.525-.675v-2.475zm24.75-2.25v-4.8h-4.125c-1.2.075-2.175 1.125-2.175 2.325 0 1.2.9 2.325 2.1 2.4 1.35.15 2.775.075 4.2.075z" fill="#CF51CE"/></svg></svg>