<?xml version="1.0" encoding="utf-8"?><svg viewBox="0 0 241 72" xmlns="http://www.w3.org/2000/svg" xmlns:xlink="http://www.w3.org/1999/xlink"><style>:root>svg{display:none}:root>svg:target{display:block}</style><svg fill="none" viewBox="0 0 23 23" id="arrow" xmlns="http://www.w3.org/2000/svg"><path d="M1.807 15.178c-.585.221-.884.879-.606 1.439a11.5 11.5 0 10.746-11.52c-.348.52-.136 1.21.415 1.506.551.295 1.232.083 1.593-.428a9.235 9.235 0 11-.624 9.633c-.292-.554-.94-.852-1.524-.63z" fill="#fff"/><path d="M1.438 10.6a.9.9 0 100 1.8v-1.8zm15.01 1.536a.9.9 0 000-1.272l-5.727-5.728A.9.9 0 109.45 6.409l5.09 5.091-5.09 5.091a.9.9 0 001.272 1.273l5.728-5.728zm-15.01.264h14.374v-1.8H1.438v1.8z" fill="#fff"/></svg><svg fill="none" viewBox="0 0 42 28" id="burger" xmlns="http://www.w3.org/2000/svg"><rect width="42" height="4" rx="2" fill="#CF51CE"/><rect y="11.818" width="42" height="4" rx="2" fill="#CF51CE"/><rect x="10" y="24" width="32" height="4" rx="2" fill="#CF51CE"/></svg><svg fill="none" viewBox="0 0 36 19" id="favicon" xmlns="http://www.w3.org/2000/svg"><mask id="ca" style="mask-type:alpha" maskUnits="userSpaceOnUse" x="0" y="0" width="36" height="19"><ellipse cx="17.548" cy="9.567" rx="17.548" ry="8.872" fill="url(#cpaint0_linear_1525_19231)"/></mask><g mask="url(#ca)"><ellipse cx="17.548" cy="9.567" rx="17.548" ry="8.872" fill="url(#cpaint1_linear_1525_19231)"/><path d="M23.128 12.03V2.168c0-.15.009-.315.026-.492.036-.177.07-.36.106-.546L7.15 12.03h15.978zm14.912 0v.692c0 .097-.062.177-.184.24-.106.052-.281.079-.527.079H25.34v5.403h-2.21v-5.403H5.518c-.264 0-.465-.027-.606-.08a.577.577 0 01-.29-.24l-.236-.625L23.102-.414h2.237V12.03h12.7z" fill="#fff"/></g><defs><linearGradient id="cpaint0_linear_1525_19231" x1="40.361" y1="-4.628" x2="30.345" y2="25.233" gradientUnits="userSpaceOnUse"><stop stop-color="#F0A"/><stop offset="1" stop-color="#8912DE"/></linearGradient><linearGradient id="cpaint1_linear_1525_19231" x1="40.361" y1="-4.628" x2="30.345" y2="25.233" gradientUnits="userSpaceOnUse"><stop stop-color="#F0A"/><stop offset="1" stop-color="#8912DE"/></linearGradient></defs></svg><svg fill="none" viewBox="0 0 11 9" id="header-arrow-down" xmlns="http://www.w3.org/2000/svg"><path d="M6.469 8.434a1.09 1.09 0 01-1.845 0L.934 2.593A1.09 1.09 0 011.858.919h7.379c.859 0 1.38.947.922 1.674l-3.69 5.841z" fill="#331A2F" fill-opacity=".9"/></svg><svg fill="none" viewBox="0 0 241 72" id="logo" xmlns="http://www.w3.org/2000/svg"><path d="M85.193 61.246c-.764 0-1.646-.117-2.645-.35l-3.155-.861.86-2.581c1.785.637 3.273.956 4.462.956.638 0 1.169-.15 1.594-.447.425-.297.637-.7.637-1.21s-.138-.893-.414-1.148c-.276-.255-.786-.478-1.53-.669l-1.72-.446c-2.38-.616-3.57-2.019-3.57-4.207 0-1.317.5-2.4 1.498-3.25 1.02-.85 2.348-1.275 3.983-1.275.659 0 1.434.117 2.327.35l3.155.861-.86 2.581c-1.722-.637-3.028-.956-3.92-.956-.595 0-1.095.16-1.498.478-.404.298-.606.69-.606 1.18 0 .51.138.892.415 1.147.276.255.785.478 1.53.669l1.688.446c1.275.34 2.188.86 2.74 1.561.553.68.83 1.562.83 2.646 0 1.296-.49 2.379-1.467 3.25-.977.85-2.422 1.275-4.334 1.275zm13.63 0c-1.594 0-2.72-.393-3.378-1.18-.637-.785-.956-1.986-.956-3.6v-7.617H92.13v-2.804h2.358v-3.729l4.047-.796v4.525h3.505v2.804h-3.505v7.68c0 1.254.51 1.88 1.53 1.88.616 0 1.274-.19 1.975-.573l.638 2.39c-1.169.68-2.454 1.02-3.856 1.02zm9.923 0c-1.445 0-2.592-.446-3.442-1.339a4.461 4.461 0 01-1.275-3.186c0-.914.298-1.647.893-2.2.616-.573 1.572-1.02 2.868-1.338l5.13-1.275v-1.306c0-.616-.191-1.105-.573-1.466-.361-.361-.871-.542-1.53-.542-.744 0-2.422.563-5.035 1.69l-1.115-2.582 3.632-1.338c1.105-.404 1.913-.606 2.422-.606 1.934 0 3.453.51 4.558 1.53 1.126.998 1.689 2.315 1.689 3.951v5.482c0 .403.063 1.009.191 1.816.148.786.34 1.455.573 2.008l-3.473.7c-.425-.467-.871-1.115-1.339-1.943-1.423 1.296-2.815 1.944-4.174 1.944zm1.434-2.836c.828 0 1.742-.478 2.74-1.434v-3.22l-3.186.925c-1.02.297-1.53.86-1.53 1.689 0 .637.18 1.137.542 1.498.361.361.839.542 1.434.542zm15.205 2.836c-1.593 0-2.719-.393-3.378-1.18-.637-.785-.956-1.986-.956-3.6v-7.617h-2.358v-2.804h2.358v-3.729l4.047-.796v4.525h3.506v2.804h-3.506v7.68c0 1.254.51 1.88 1.53 1.88.616 0 1.275-.19 1.976-.573l.637 2.39c-1.168.68-2.454 1.02-3.856 1.02zm45.009-.287h-4.047v-8.7c0-1.275-.191-2.199-.574-2.772-.361-.595-.945-.893-1.752-.893-.808 0-1.679.478-2.614 1.434V60.96h-4.047v-8.7c0-1.275-.18-2.199-.542-2.772-.361-.595-.956-.893-1.784-.893-.786 0-1.657.478-2.613 1.434V60.96h-4.048V50.283c0-.403-.074-.998-.223-1.784-.127-.808-.308-1.488-.541-2.04l3.441-.7c.446.445.903 1.093 1.371 1.943 1.338-1.296 2.73-1.944 4.174-1.944 2.146 0 3.601.754 4.366 2.263.468-.616 1.137-1.148 2.008-1.594.871-.446 1.742-.669 2.613-.669 1.615 0 2.815.467 3.601 1.402.807.935 1.211 2.39 1.211 4.366v9.433zm7.348.287c-1.445 0-2.592-.446-3.442-1.339a4.461 4.461 0 01-1.275-3.186c0-.914.298-1.647.893-2.2.616-.573 1.572-1.02 2.868-1.338l5.131-1.275v-1.306c0-.616-.192-1.105-.574-1.466-.361-.361-.871-.542-1.53-.542-.743 0-2.422.563-5.035 1.69l-1.115-2.582 3.633-1.338c1.104-.404 1.912-.606 2.422-.606 1.933 0 3.452.51 4.557 1.53 1.126.998 1.689 2.315 1.689 3.951v5.482c0 .403.063 1.009.191 1.816.149.786.34 1.455.574 2.008l-3.474.7c-.425-.467-.871-1.115-1.338-1.943-1.424 1.296-2.815 1.944-4.175 1.944zm1.434-2.836c.828 0 1.742-.478 2.741-1.434v-3.22l-3.187.925c-1.02.297-1.53.86-1.53 1.689 0 .637.181 1.137.542 1.498.361.361.839.542 1.434.542zm14.465 2.549h-4.047V50.283c0-.403-.075-.998-.223-1.784-.128-.808-.308-1.488-.542-2.04l3.442-.7c.658.658 1.115 1.55 1.37 2.676.425-.85.988-1.509 1.689-1.976a4.205 4.205 0 012.326-.7c.468 0 .893.073 1.275.222l-.701 3.474h-1.052c-.998 0-1.784.244-2.358.733-.552.467-.945 1.253-1.179 2.358v8.413zm21.045 0h-4.972l-4.939-7.712v7.712h-4.048V39.671l4.048-.796v13.257l5.035-6.087h4.557l-5.991 6.66 6.31 8.254zm7.254.287c-2.401 0-4.217-.712-5.45-2.135-1.211-1.445-1.816-3.336-1.816-5.673s.627-4.196 1.88-5.577c1.254-1.402 2.996-2.103 5.226-2.103 4.313 0 6.47 2.241 6.47 6.724 0 .468-.054.86-.16 1.18h-9.241c0 1.593.286 2.782.86 3.569.595.785 1.413 1.179 2.454 1.179 1.168 0 2.698-.425 4.589-1.275l1.115 2.581-3.378 1.243c-.574.191-1.423.287-2.549.287zm-.383-12.652c-.85 0-1.519.298-2.007.893-.468.594-.701 1.338-.701 2.23h5.194c0-2.082-.829-3.123-2.486-3.123zm14.628 12.652c-1.593 0-2.719-.393-3.378-1.18-.637-.785-.956-1.986-.956-3.6v-7.617h-2.358v-2.804h2.358v-3.729l4.048-.796v4.525h3.505v2.804h-3.505v7.68c0 1.254.509 1.88 1.529 1.88.616 0 1.275-.19 1.976-.573l.637 2.39c-1.168.68-2.453 1.02-3.856 1.02z" fill="#54618E"/><path d="M143.753 60.959h-3.856v-4.908h-8.7l-.86-2.485 9.082-13.002h4.334v12.492h2.039v2.995h-2.039v4.908zm-3.856-7.903V44.77l-5.641 8.286h5.641z" fill="#D653D2"/><mask id="ea" style="mask-type:alpha" maskUnits="userSpaceOnUse" x="0" y="0" width="61" height="32"><ellipse cx="30.208" cy="16.098" rx="30.208" ry="15.303" fill="url(#epaint0_linear_1457_20129)"/></mask><g mask="url(#ea)"><ellipse cx="30.208" cy="16.098" rx="30.208" ry="15.303" fill="url(#epaint1_linear_1457_20129)"/><path d="M39.813 20.345V3.336c0-.26.015-.543.045-.849.06-.306.121-.62.181-.941L12.31 20.345h27.504zm25.67 0v1.194c0 .168-.106.306-.318.413-.181.092-.483.137-.906.137h-20.64v9.32h-3.806v-9.32H9.499c-.453 0-.8-.045-1.042-.137-.242-.107-.408-.245-.498-.413l-.408-1.08L39.768-1.116h3.851v21.462h21.863z" fill="#fff"/></g><defs><linearGradient id="epaint0_linear_1457_20129" x1="69.478" y1="-8.386" x2="52.175" y2="43.099" gradientUnits="userSpaceOnUse"><stop stop-color="#F0A"/><stop offset="1" stop-color="#8912DE"/></linearGradient><linearGradient id="epaint1_linear_1457_20129" x1="69.478" y1="-8.386" x2="52.175" y2="43.099" gradientUnits="userSpaceOnUse"><stop stop-color="#F0A"/><stop offset="1" stop-color="#8912DE"/></linearGradient></defs></svg><svg fill="none" viewBox="0 0 17 17" id="phone" xmlns="http://www.w3.org/2000/svg"><path d="M11.1 11.513l1.347-1.343a1.317 1.317 0 011.406-.288l1.64.654a1.31 1.31 0 01.818 1.198v2.997a1.297 1.297 0 01-.854 1.21c-.165.06-.34.088-.516.079C3.444 15.306 1.124 5.597.686 1.88a1.297 1.297 0 01.77-1.333c.167-.075.35-.112.534-.111h2.902a1.3 1.3 0 011.202.815l.655 1.636a1.291 1.291 0 01-.282 1.402L5.121 5.633s.775 5.232 5.98 5.88z" fill="#331A2F"/></svg><svg fill="none" viewBox="0 0 17 17" id="phone-hover" xmlns="http://www.w3.org/2000/svg"><path d="M11.1 11.513l1.347-1.343a1.317 1.317 0 011.406-.288l1.64.654a1.31 1.31 0 01.818 1.198v2.997a1.297 1.297 0 01-.854 1.21c-.165.06-.34.088-.516.079C3.444 15.306 1.124 5.597.686 1.88a1.297 1.297 0 01.77-1.333c.167-.075.35-.112.534-.111h2.902a1.3 1.3 0 011.202.815l.655 1.636a1.291 1.291 0 01-.282 1.402L5.121 5.633s.775 5.232 5.98 5.88z" fill="#CF51CE"/></svg></svg>